# xmcd
#
# Track frame offsets:
# 150
# 20587
# 78775
# 91033
# 128803
# 155100
# 204075
# 211575
# 256921
# 276225
#
# Disc length: 4374 seconds
#
# Revision: 0
# Processed by: cddbd v1.5.1PL0 Copyright (c) Steve Scherf et al.
# Submitted via: Audion 3.0.2 (http://www.panic.com/audion/)
#
DISCID=7711140a
DTITLE=Karl Ignaz Henntmair - Ein Jahr mit Thomas Bernhard
DYEAR=1900
DGENRE=
TTITLE0=1. April
TTITLE1=Mai
TTITLE2=Juni
TTITLE3=Juli
TTITLE4=August
TTITLE5=September
TTITLE6=Oktober
TTITLE7=November
TTITLE8=Attnang, Kruzifix
TTITLE9=Dezember
EXTD=
EXTT0=
EXTT1=
EXTT2=
EXTT3=
EXTT4=
EXTT5=
EXTT6=
EXTT7=
EXTT8=
EXTT9=
PLAYORDER=
